<svg id="container" width="1281.541015625" xmlns="http://www.w3.org/2000/svg" class="flowchart" height="170.5500030517578" viewBox="0 0 1281.541015625 170.5500030517578" role="graphics-document document" aria-roledescription="flowchart-v2"><rect width="100%" height="100%" fill="#ffffff"/><style>#container{font-family:"trebuchet ms",verdana,arial,sans-serif;font-size:16px;fill:#333;}@keyframes edge-animation-frame{from{stroke-dashoffset:0;}}@keyframes dash{to{stroke-dashoffset:0;}}#container .edge-animation-slow{stroke-dasharray:9,5!important;stroke-dashoffset:900;animation:dash 50s linear infinite;stroke-linecap:round;}#container .edge-animation-fast{stroke-dasharray:9,5!important;stroke-dashoffset:900;animation:dash 20s linear infinite;stroke-linecap:round;}#container .error-icon{fill:#552222;}#container .error-text{fill:#552222;stroke:#552222;}#container .edge-thickness-normal{stroke-width:1px;}#container .edge-thickness-thick{stroke-width:3.5px;}#container .edge-pattern-solid{stroke-dasharray:0;}#container .edge-thickness-invisible{stroke-width:0;fill:none;}#container .edge-pattern-dashed{stroke-dasharray:3;}#container .edge-pattern-dotted{stroke-dasharray:2;}#container .marker{fill:#333333;stroke:#333333;}#container .marker.cross{stroke:#333333;}#container svg{font-family:"trebuchet ms",verdana,arial,sans-serif;font-size:16px;}#container p{margin:0;}#container .label{font-family:"trebuchet ms",verdana,arial,sans-serif;color:#333;}#container .cluster-label text{fill:#333;}#container .cluster-label span{color:#333;}#container .cluster-label span p{background-color:transparent;}#container .label text,#container span{fill:#333;color:#333;}#container .node rect,#container .node circle,#container .node ellipse,#container .node polygon,#container .node path{fill:#ECECFF;stroke:#9370DB;stroke-width:1px;}#container .rough-node .label text,#container .node .label text,#container .image-shape .label,#container .icon-shape .label{text-anchor:middle;}#container .node .katex path{fill:#000;stroke:#000;stroke-width:1px;}#container .rough-node .label,#container .node .label,#container .image-shape .label,#container .icon-shape .label{text-align:center;}#container .node.clickable{cursor:pointer;}#container .root .anchor path{fill:#333333!important;stroke-width:0;stroke:#333333;}#container .arrowheadPath{fill:#333333;}#container .edgePath .path{stroke:#333333;stroke-width:2.0px;}#container .flowchart-link{stroke:#333333;fill:none;}#container .edgeLabel{background-color:rgba(232,232,232, 0.8);text-align:center;}#container .edgeLabel p{background-color:rgba(232,232,232, 0.8);}#container .edgeLabel rect{opacity:1;background-color:rgba(232,232,232, 0.8);fill:rgba(232,232,232, 0.8);}#container .labelBkg{background-color:rgba(232, 232, 232, 0.5);}#container .cluster rect{fill:#ffffde;stroke:#aaaa33;stroke-width:1px;}#container .cluster text{fill:#333;}#container .cluster span{color:#333;}#container div.mermaidTooltip{position:absolute;text-align:center;max-width:200px;padding:2px;font-family:"trebuchet ms",verdana,arial,sans-serif;font-size:12px;background:hsl(80, 100%, 96.2745098039%);border:1px solid #aaaa33;border-radius:2px;pointer-events:none;z-index:100;}#container .flowchartTitleText{text-anchor:middle;font-size:18px;fill:#333;}#container rect.text{fill:none;stroke-width:0;}#container .icon-shape,#container .image-shape{background-color:rgba(232,232,232, 0.8);text-align:center;}#container .icon-shape p,#container .image-shape p{background-color:rgba(232,232,232, 0.8);padding:2px;}#container .icon-shape rect,#container .image-shape rect{opacity:1;background-color:rgba(232,232,232, 0.8);fill:rgba(232,232,232, 0.8);}#container .label-icon{display:inline-block;height:1em;overflow:visible;vertical-align:-0.125em;}#container .node .label-icon path{fill:currentColor;stroke:revert;stroke-width:revert;}#container :root{--mermaid-font-family:"trebuchet ms",verdana,arial,sans-serif;}</style><g><marker id="container_flowchart-v2-pointEnd" class="marker flowchart-v2" viewBox="0 0 10 10" refX="5" refY="5" markerUnits="userSpaceOnUse" markerWidth="8" markerHeight="8" orient="auto"><path d="M 0 0 L 10 5 L 0 10 z" class="arrowMarkerPath" style="stroke-width: 1; stroke-dasharray: 1, 0;"></path></marker><marker id="container_flowchart-v2-pointStart" class="marker flowchart-v2" viewBox="0 0 10 10" refX="4.5" refY="5" markerUnits="userSpaceOnUse" markerWidth="8" markerHeight="8" orient="auto"><path d="M 0 5 L 10 10 L 10 0 z" class="arrowMarkerPath" style="stroke-width: 1; stroke-dasharray: 1, 0;"></path></marker><marker id="container_flowchart-v2-circleEnd" class="marker flowchart-v2" viewBox="0 0 10 10" refX="11" refY="5" markerUnits="userSpaceOnUse" markerWidth="11" markerHeight="11" orient="auto"><circle cx="5" cy="5" r="5" class="arrowMarkerPath" style="stroke-width: 1; stroke-dasharray: 1, 0;"></circle></marker><marker id="container_flowchart-v2-circleStart" class="marker flowchart-v2" viewBox="0 0 10 10" refX="-1" refY="5" markerUnits="userSpaceOnUse" markerWidth="11" markerHeight="11" orient="auto"><circle cx="5" cy="5" r="5" class="arrowMarkerPath" style="stroke-width: 1; stroke-dasharray: 1, 0;"></circle></marker><marker id="container_flowchart-v2-crossEnd" class="marker cross flowchart-v2" viewBox="0 0 11 11" refX="12" refY="5.2" markerUnits="userSpaceOnUse" markerWidth="11" markerHeight="11" orient="auto"><path d="M 1,1 l 9,9 M 10,1 l -9,9" class="arrowMarkerPath" style="stroke-width: 2; stroke-dasharray: 1, 0;"></path></marker><marker id="container_flowchart-v2-crossStart" class="marker cross flowchart-v2" viewBox="0 0 11 11" refX="-1" refY="5.2" markerUnits="userSpaceOnUse" markerWidth="11" markerHeight="11" orient="auto"><path d="M 1,1 l 9,9 M 10,1 l -9,9" class="arrowMarkerPath" style="stroke-width: 2; stroke-dasharray: 1, 0;"></path></marker><g class="root"><g class="clusters"></g><g class="edgePaths"><path d="M474.873,41.3L493.346,41.3C511.818,41.3,548.763,41.3,585.715,44.089C622.667,46.878,659.626,52.456,678.106,55.245L696.586,58.034" id="L_V_VM_0" class="edge-thickness-normal edge-pattern-solid edge-thickness-normal edge-pattern-solid flowchart-link" style=";" data-edge="true" data-et="edge" data-id="L_V_VM_0" data-points="W3sieCI6NDcwLjg3MzQ4OTM3OTg4MjgsInkiOjQxLjI5OTk5OTIzNzA2MDU1fSx7IngiOjU4NS43MDcyNTI1MDI0NDE0LCJ5Ijo0MS4yOTk5OTkyMzcwNjA1NX0seyJ4Ijo3MDAuNTQxMDE1NjI1LCJ5Ijo1OC42MzEyODk2MjE0OTQ3MX1d" marker-start="url(#container_flowchart-v2-pointStart)" marker-end="url(#container_flowchart-v2-pointEnd)"></path><path d="M923.416,75.45L932.454,75.45C941.492,75.45,959.567,75.45,976.995,77.508C994.423,79.567,1011.204,83.684,1019.594,85.742L1027.984,87.801" id="L_VM_D_0" class="edge-thickness-normal edge-pattern-solid edge-thickness-normal edge-pattern-solid flowchart-link" style=";" data-edge="true" data-et="edge" data-id="L_VM_D_0" data-points="W3sieCI6OTIzLjQxNjAxNTYyNSwieSI6NzUuNDQ5OTk4ODU1NTkwODJ9LHsieCI6OTc3LjY0MjU3ODEyNSwieSI6NzUuNDQ5OTk4ODU1NTkwODJ9LHsieCI6MTAzMS44NjkxNDA2MjUsInkiOjg4Ljc1Mzk5NTQzMjUwODEyfV0=" marker-end="url(#container_flowchart-v2-pointEnd)"></path><path d="M88.314,88.418L100.415,80.565C112.516,72.712,136.718,57.006,158.369,49.153C180.019,41.3,199.118,41.3,208.668,41.3L218.217,41.3" id="L_G_V_0" class="edge-thickness-normal edge-pattern-dotted edge-thickness-normal edge-pattern-solid flowchart-link" style=";" data-edge="true" data-et="edge" data-id="L_G_V_0" data-points="W3sieCI6ODguMzEzNjU1OTQ0MjcyODUsInkiOjg4LjQxNzk4NTIxMDgzNjI4fSx7IngiOjE2MC45MjAzNjQzNzk4ODI4LCJ5Ijo0MS4yOTk5OTkyMzcwNjA1NX0seyJ4IjoyMjIuMjE3MjM5Mzc5ODgyOCwieSI6NDEuMjk5OTk5MjM3MDYwNTV9XQ==" marker-end="url(#container_flowchart-v2-pointEnd)"></path><path d="M100.123,110.1L110.256,110.017C120.389,109.933,140.655,109.767,181.725,109.683C222.795,109.6,284.67,109.6,355.468,109.6C426.266,109.6,505.987,109.6,564.327,106.811C622.667,104.022,659.626,98.444,678.106,95.655L696.586,92.866" id="L_G_VM_0" class="edge-thickness-normal edge-pattern-dotted edge-thickness-normal edge-pattern-solid flowchart-link" style=";" data-edge="true" data-et="edge" data-id="L_G_VM_0" data-points="W3sieCI6MTAwLjEyMzQ4ODM3NTI2OTA5LCJ5IjoxMTAuMDk5OTk4NDc0MTIxMX0seyJ4IjoxNjAuOTIwMzY0Mzc5ODgyOCwieSI6MTA5LjU5OTk5ODQ3NDEyMTF9LHsieCI6MzQ2LjU0NTM2NDM3OTg4MjgsInkiOjEwOS41OTk5OTg0NzQxMjExfSx7IngiOjU4NS43MDcyNTI1MDI0NDE0LCJ5IjoxMDkuNTk5OTk4NDc0MTIxMX0seyJ4Ijo3MDAuNTQxMDE1NjI1LCJ5Ijo5Mi4yNjg3MDgwODk2ODY5Mn1d" marker-end="url(#container_flowchart-v2-pointEnd)"></path><path d="M92.115,128.788L103.582,134.415C115.05,140.042,137.985,151.296,180.39,156.923C222.795,162.55,284.67,162.55,355.468,162.55C426.266,162.55,505.987,162.55,583.559,162.55C661.131,162.55,736.555,162.55,801.877,162.55C867.2,162.55,922.421,162.55,958.423,160.434C994.425,158.317,1011.208,154.085,1019.599,151.969L1027.991,149.852" id="L_G_D_0" class="edge-thickness-normal edge-pattern-dotted edge-thickness-normal edge-pattern-solid flowchart-link" style=";" data-edge="true" data-et="edge" data-id="L_G_D_0" data-points="W3sieCI6OTIuMTE0ODQ1MTQ5MTk4MzIsInkiOjEyOC43ODgyNjI4MTY5MzExfSx7IngiOjE2MC45MjAzNjQzNzk4ODI4LCJ5IjoxNjIuNTQ5OTk5MjM3MDYwNTV9LHsieCI6MzQ2LjU0NTM2NDM3OTg4MjgsInkiOjE2Mi41NDk5OTkyMzcwNjA1NX0seyJ4Ijo1ODUuNzA3MjUyNTAyNDQxNCwieSI6MTYyLjU0OTk5OTIzNzA2MDU1fSx7IngiOjgxMS45Nzg1MTU2MjUsInkiOjE2Mi41NDk5OTkyMzcwNjA1NX0seyJ4Ijo5NzcuNjQyNTc4MTI1LCJ5IjoxNjIuNTQ5OTk5MjM3MDYwNTV9LHsieCI6MTAzMS44NjkxNDA2MjUsInkiOjE0OC44NzQyOTY0ODEyNDkzfV0=" marker-end="url(#container_flowchart-v2-pointEnd)"></path></g><g class="edgeLabels"><g><rect class="background" style="stroke: none"></rect></g><g><rect class="background" style="stroke: none"></rect></g><g class="edgeLabel" transform="translate(585.7072525024414, 41.29999923706055)"><g class="label" data-id="L_V_VM_0" transform="translate(-89.8337631225586, -11.5)"><g><rect class="background" style="" x="-2" y="-1" width="179.6675262451172" height="23"></rect><text y="-10.1" style=""><tspan class="text-outer-tspan" x="0" y="-0.1em" dy="1.1em"><tspan font-style="normal" class="text-inner-tspan" font-weight="normal">bind</tspan><tspan font-style="normal" class="text-inner-tspan" font-weight="normal"> /</tspan><tspan font-style="normal" class="text-inner-tspan" font-weight="normal"> bindBidirectional</tspan></tspan></text></g></g></g><g class="edgeLabel" transform="translate(977.642578125, 75.44999885559082)"><g class="label" data-id="L_VM_D_0" transform="translate(-29.2265625, -11.5)"><g><rect class="background" style="" x="-2" y="-1" width="58.453125" height="23"></rect><text y="-10.1" style=""><tspan class="text-outer-tspan" x="0" y="-0.1em" dy="1.1em"><tspan font-style="normal" class="text-inner-tspan" font-weight="normal">appelle</tspan></tspan></text></g></g></g><g class="edgeLabel" transform="translate(160.9203643798828, 41.29999923706055)"><g class="label" data-id="L_G_V_0" transform="translate(-36.296875, -11.5)"><g><rect class="background" style="" x="-2" y="-1" width="72.59375" height="23"></rect><text y="-10.1" style=""><tspan class="text-outer-tspan" x="0" y="-0.1em" dy="1.1em"><tspan font-style="normal" class="text-inner-tspan" font-weight="normal">assemble</tspan></tspan></text></g></g></g><g class="edgeLabel"><g class="label" data-id="L_G_VM_0" transform="translate(0, 0)"><text y="-10.1"><tspan class="text-outer-tspan" x="0" y="-0.1em" dy="1.1em"></tspan></text></g></g><g class="edgeLabel"><g class="label" data-id="L_G_D_0" transform="translate(0, 0)"><text y="-10.1"><tspan class="text-outer-tspan" x="0" y="-0.1em" dy="1.1em"></tspan></text></g></g></g><g class="nodes"><g class="node default" id="flowchart-V-0" transform="translate(346.5453643798828, 41.29999923706055)"><rect class="basic label-container" style="fill:#7bb563 !important" x="-124.328125" y="-33.29999923706055" width="248.65625" height="66.5999984741211"></rect><g class="label" style="color:white !important" transform="translate(0, -18.299999237060547)"><rect></rect><g><rect class="background" style="stroke: none"></rect><text y="-10.1" style="fill:white !important"><tspan class="text-outer-tspan" x="0" y="-0.1em" dy="1.1em"><tspan font-style="normal" class="text-inner-tspan" font-weight="normal">Vue</tspan></tspan><tspan class="text-outer-tspan" x="0" y="1em" dy="1.1em"><tspan font-style="normal" class="text-inner-tspan" font-weight="normal">(FXML</tspan><tspan font-style="normal" class="text-inner-tspan" font-weight="normal"> +</tspan><tspan font-style="normal" class="text-inner-tspan" font-weight="normal"> Contrôleur</tspan><tspan font-style="normal" class="text-inner-tspan" font-weight="normal"> mince)</tspan></tspan></text></g></g></g><g class="node default" id="flowchart-VM-1" transform="translate(811.978515625, 75.44999885559082)"><rect class="basic label-container" style="fill:#e8a838 !important" x="-111.4375" y="-50.900001525878906" width="222.875" height="101.80000305175781"></rect><g class="label" style="color:white !important" transform="translate(0, -35.900001525878906)"><rect></rect><g><rect class="background" style="stroke: none"></rect><text y="-10.1" style="fill:white !important"><tspan class="text-outer-tspan" x="0" y="-0.1em" dy="1.1em"><tspan font-style="normal" class="text-inner-tspan" font-weight="normal">ViewModel</tspan></tspan><tspan class="text-outer-tspan" x="0" y="1em" dy="1.1em"><tspan font-style="normal" class="text-inner-tspan" font-weight="normal">état</tspan><tspan font-style="normal" class="text-inner-tspan" font-weight="normal"> observable</tspan><tspan font-style="normal" class="text-inner-tspan" font-weight="normal"> +</tspan></tspan><tspan class="text-outer-tspan" x="0" y="2.1em" dy="1.1em"><tspan font-style="normal" class="text-inner-tspan" font-weight="normal">commandes</tspan></tspan><tspan class="text-outer-tspan" x="0" y="3.2em" dy="1.1em"><tspan font-style="normal" class="text-inner-tspan" font-weight="normal">(testable</tspan><tspan font-style="normal" class="text-inner-tspan" font-weight="normal"> sans</tspan><tspan font-style="normal" class="text-inner-tspan" font-weight="normal"> fenêtre)</tspan></tspan></text></g></g></g><g class="node default" id="flowchart-D-2" transform="translate(1152.705078125, 118.39999961853027)"><rect class="basic label-container" style="fill:#4a90d9 !important" x="-120.8359375" y="-33.29999923706055" width="241.671875" height="66.5999984741211"></rect><g class="label" style="color:white !important" transform="translate(0, -18.299999237060547)"><rect></rect><g><rect class="background" style="stroke: none"></rect><text y="-10.1" style="fill:white !important"><tspan class="text-outer-tspan" x="0" y="-0.1em" dy="1.1em"><tspan font-style="normal" class="text-inner-tspan" font-weight="normal">Modèle</tspan><tspan font-style="normal" class="text-inner-tspan" font-weight="normal"> /</tspan><tspan font-style="normal" class="text-inner-tspan" font-weight="normal"> Service</tspan></tspan><tspan class="text-outer-tspan" x="0" y="1em" dy="1.1em"><tspan font-style="normal" class="text-inner-tspan" font-weight="normal">(demain</tspan><tspan font-style="normal" class="text-inner-tspan" font-weight="normal"> :</tspan><tspan font-style="normal" class="text-inner-tspan" font-weight="normal"> la</tspan><tspan font-style="normal" class="text-inner-tspan" font-weight="normal"> base</tspan><tspan font-style="normal" class="text-inner-tspan" font-weight="normal"> du</tspan><tspan font-style="normal" class="text-inner-tspan" font-weight="normal"> TP5)</tspan></tspan></text></g></g></g><g class="node default" id="flowchart-G-3" transform="translate(53.811744689941406, 109.5999984741211)"><g class="basic label-container outer-path"><path d="M-20.02500057220459 -25.799999237060547 C-11.54813378994732 -25.799999237060547, -3.07126700769005 -25.799999237060547, 20.02500057220459 -25.799999237060547 C20.02500057220459 -25.799999237060547, 20.02500057220459 -25.799999237060547, 20.02500057220459 -25.799999237060547 C20.615609542537214 -25.7810595569326, 21.206218512869835 -25.762119876804658, 21.678012198825282 -25.746990371586765 C22.095878034837416 -25.70667935694387, 22.513743870849552 -25.666368342300974, 23.32423124610231 -25.58818159996402 C23.93120468655464 -25.49005084126102, 24.538178127006965 -25.39192008255802, 24.95689304685753 -25.32422550149928 C25.280051210601197 -25.250466759428885, 25.603209374344864 -25.17670801735849, 26.569288643546784 -24.956206728419545 C26.988967337235533 -24.83164829507114, 27.408646030924285 -24.70708986172274, 28.154792356805512 -24.48563754880318 C28.719363645355493 -24.277870095777004, 29.28393493390547 -24.07010264275083, 29.706889011786437 -23.914451632345997 C30.140617896789166 -23.72245272106553, 30.574346781791895 -23.53045380978506, 31.219200710410565 -23.24499610449772 C31.690534159603036 -22.99910174595749, 32.161867608795504 -22.753207387417262, 32.6855130395184 -22.480021901620034 C33.17447715281134 -22.18360898266977, 33.663441266104286 -21.887196063719507, 34.09980060722664 -21.62267246679901 C34.48129790475525 -21.35655646679489, 34.86279520228387 -21.090440466790767, 35.45625180255584 -20.67647083276321 C35.94133413161897 -20.289630583918267, 36.4264164606821 -19.902790335073323, 36.749292676586506 -19.64530514498651 C37.163944481143446 -19.26872934717345, 37.578596285700385 -18.892153549360394, 37.97360984701088 -18.533412684464313 C38.37347046732531 -18.12052376482219, 38.77333108763975 -17.707634845180067, 39.12417233196044 -17.345362455817106 C39.40474495466015 -17.015785888159517, 39.685317577359875 -16.686209320501927, 40.19625222338968 -16.086036412270357 C40.490572577626764 -15.691673950728529, 40.78489293186385 -15.2973114891867, 41.18544411506427 -14.76060939466161 C41.411765853224686 -14.412918428951093, 41.6380875913851 -14.065227463240575, 42.08768320532037 -13.374527866909407 C42.34762285661817 -12.912978694286233, 42.60756250791597 -12.451429521663059, 42.899262000206406 -11.93348753532484 C43.177897308962976 -11.354895354851282, 43.456532617719546 -10.776303174377723, 43.61684554837108 -10.443409943732584 C43.790788571875495 -10.013767312717107, 43.9647315953799 -9.58412468170163, 44.237485145093814 -8.910418140577123 C44.42253093323431 -8.353089709740406, 44.60757672137481 -7.795761278903688, 44.7586304491449 -7.340811518003323 C44.87106809930693 -6.912038027149673, 44.98350574946896 -6.483264536296022, 45.17813996268467 -5.741039926302914 C45.24391424415792 -5.403302892337079, 45.309688525631174 -5.065565858371243, 45.49428983113747 -4.117677170096137 C45.57853479539791 -3.4642898633420716, 45.66277975965834 -2.810902556588006, 45.70578092687991 -2.4773939951584394 C45.74419453480591 -1.879071044804855, 45.782608142731895 -1.280748094451271, 45.81174418763487 -0.8269306768952902 C45.81174418763487 -0.22214650474037168, 45.81174418763487 0.38263766741454686, 45.81174418763487 0.826930676895284 C45.77158507027726 1.4524413455961085, 45.73142595291966 2.077952014296933, 45.70578092687991 2.4773939951584216 C45.63367565811919 3.036628220870771, 45.561570389358465 3.5958624465831206, 45.49428983113748 4.117677170096119 C45.36951772337017 4.758355572886895, 45.244745615602874 5.399033975677671, 45.17813996268467 5.741039926302909 C45.01665920245004 6.356836051281732, 44.85517844221542 6.972632176260555, 44.75863044914491 7.340811518003306 C44.64235826614574 7.691004807740255, 44.526086083146566 8.041198097477203, 44.23748514509383 8.910418140577105 C44.08044624686054 9.298307255353883, 43.92340734862725 9.68619637013066, 43.61684554837109 10.443409943732577 C43.437509140374644 10.815805832121624, 43.2581727323782 11.188201720510671, 42.899262000206406 11.933487535324835 C42.62843554778455 12.414367325751927, 42.35760909536269 12.89524711617902, 42.087683205320374 13.374527866909402 C41.76652014067498 13.867920578562932, 41.44535707602959 14.361313290216462, 41.185444115064286 14.760609394661596 C40.857038834813956 15.200642551860527, 40.528633554563626 15.64067570905946, 40.19625222338968 16.086036412270353 C39.81413482666033 16.53489324956448, 39.43201742993097 16.98375008685861, 39.12417233196045 17.345362455817092 C38.71877890371274 17.7639644539023, 38.313385475465026 18.18256645198751, 37.97360984701088 18.533412684464306 C37.72688561821104 18.757481101094942, 37.480161389411215 18.98154951772558, 36.749292676586535 19.64530514498649 C36.341476477222265 19.970527711534658, 35.933660277857996 20.29575027808282, 35.45625180255585 20.676470832763208 C35.15132781950574 20.889172603392485, 34.84640383645563 21.101874374021758, 34.099800607226655 21.622672466799003 C33.60665701081146 21.921619012979342, 33.11351341439627 22.22056555915968, 32.685513039518405 22.48002190162003 C32.310055196106646 22.67589801803572, 31.934597352694883 22.871774134451407, 31.21920071041057 23.244996104497716 C30.804549808348145 23.428549758658768, 30.389898906285723 23.61210341281982, 29.70688901178645 23.914451632345994 C29.23097167350928 24.089593612163643, 28.75505433523211 24.26473559198129, 28.15479235680553 24.485637548803172 C27.72716152819783 24.612556134053914, 27.299530699590132 24.739474719304653, 26.569288643546813 24.95620672841954 C26.101402188343634 25.062998758575205, 25.63351573314046 25.169790788730868, 24.956893046857545 25.324225501499278 C24.470606886771844 25.40284447665644, 23.984320726686143 25.4814634518136, 23.32423124610233 25.588181599964017 C22.828860836570374 25.635969387601484, 22.333490427038424 25.68375717523895, 21.678012198825282 25.746990371586765 C21.298911563198 25.759147391096707, 20.919810927570715 25.771304410606653, 20.025000572204593 25.799999237060547 C20.025000572204593 25.799999237060547, 20.02500057220459 25.799999237060547, 20.02500057220459 25.799999237060547 C7.2115241645265655 25.799999237060547, -5.601952243151459 25.799999237060547, -20.025000572204586 25.799999237060547 C-20.625333654638563 25.780747723584348, -21.225666737072537 25.761496210108145, -21.67801219882527 25.746990371586765 C-22.122174372326125 25.704142580892306, -22.566336545826978 25.661294790197843, -23.32423124610232 25.588181599964017 C-23.659119948139633 25.534039391719297, -23.994008650176948 25.479897183474574, -24.956893046857534 25.324225501499278 C-25.58995423513263 25.17973341638581, -26.223015423407727 25.03524133127235, -26.569288643546784 24.956206728419545 C-26.942102902131165 24.84555741341368, -27.314917160715545 24.73490809840781, -28.154792356805498 24.485637548803183 C-28.62649457091393 24.31204677364381, -29.09819678502236 24.138455998484442, -29.70688901178644 23.914451632345997 C-30.23454350136552 23.680874642123648, -30.762197990944596 23.447297651901295, -31.21920071041056 23.244996104497723 C-31.536942841976533 23.079230237983303, -31.854684973542504 22.913464371468887, -32.6855130395184 22.480021901620038 C-33.02273507903949 22.275595919525674, -33.35995711856059 22.07116993743131, -34.099800607226626 21.622672466799017 C-34.527336432354154 21.32444198291763, -34.95487225748169 21.026211499036243, -35.45625180255584 20.67647083276321 C-35.77903110612213 20.419062927687097, -36.10181040968843 20.16165502261098, -36.749292676586506 19.645305144986512 C-37.037214504406194 19.383822158954786, -37.325136332225874 19.12233917292306, -37.97360984701086 18.533412684464324 C-38.28638297543833 18.210448750211555, -38.599156103865795 17.887484815958786, -39.12417233196044 17.3453624558171 C-39.430154048510914 16.985938920704008, -39.73613576506139 16.62651538559092, -40.19625222338967 16.08603641227036 C-40.58671200951828 15.562855870476314, -40.977171795646896 15.039675328682268, -41.18544411506427 14.760609394661614 C-41.526744450598244 14.236280427308863, -41.86804478613221 13.71195145995611, -42.08768320532036 13.374527866909418 C-42.29029004473377 13.014778907363716, -42.492896884147186 12.655029947818013, -42.8992620002064 11.933487535324842 C-43.070430000880926 11.578053519515677, -43.24159800155545 11.222619503706513, -43.61684554837108 10.443409943732586 C-43.75541740937519 10.101134767947764, -43.89398927037929 9.758859592162942, -44.237485145093814 8.910418140577127 C-44.43917395853259 8.302963569247973, -44.64086277197136 7.695508997918819, -44.7586304491449 7.340811518003316 C-44.89147998172916 6.834198672907894, -45.02432951431342 6.32758582781247, -45.17813996268467 5.741039926302918 C-45.25778012214573 5.332104539424031, -45.33742028160679 4.923169152545144, -45.49428983113747 4.117677170096139 C-45.561877032366496 3.5934841839663028, -45.62946423359553 3.0692911978364656, -45.70578092687991 2.477393995158454 C-45.73996307862715 1.944979390358919, -45.77414523037439 1.4125647855593841, -45.81174418763487 0.8269306768952934 C-45.81174418763487 0.2999015604855021, -45.81174418763487 -0.22712755592428924, -45.81174418763487 -0.8269306768952809 C-45.78777239598814 -1.2003106814749998, -45.76380060434142 -1.5736906860547186, -45.70578092687991 -2.4773939951584185 C-45.63725259946847 -3.0088861701127323, -45.56872427205702 -3.5403783450670465, -45.49428983113748 -4.117677170096128 C-45.40576518387746 -4.572232524085461, -45.317240536617454 -5.026787878074795, -45.17813996268467 -5.741039926302906 C-45.04472127691043 -6.249823199184271, -44.91130259113619 -6.758606472065636, -44.75863044914491 -7.340811518003303 C-44.64545276762009 -7.681684662341353, -44.532275086095275 -8.022557806679403, -44.23748514509383 -8.910418140577093 C-43.99869305516431 -9.500239219433992, -43.75990096523479 -10.090060298290892, -43.61684554837109 -10.443409943732574 C-43.3372746203466 -11.023944957635011, -43.05770369232211 -11.60447997153745, -42.899262000206406 -11.933487535324831 C-42.72633711457634 -12.240533180304459, -42.55341222894628 -12.547578825284086, -42.08768320532037 -13.374527866909409 C-41.7682450910184 -13.865270591621409, -41.44880697671644 -14.356013316333408, -41.18544411506428 -14.760609394661605 C-40.97334906444202 -15.044797440238824, -40.76125401381976 -15.328985485816043, -40.19625222338968 -16.086036412270353 C-39.87378427421246 -16.46482561432002, -39.55131632503525 -16.843614816369687, -39.12417233196045 -17.345362455817092 C-38.80777588087077 -17.672067768198918, -38.4913794297811 -17.998773080580747, -37.97360984701089 -18.5334126844643 C-37.68665490516812 -18.794017570234193, -37.39969996332535 -19.05462245600409, -36.749292676586535 -19.645305144986487 C-36.45333045769291 -19.881327138668745, -36.15736823879927 -20.117349132351006, -35.45625180255585 -20.676470832763204 C-34.982931553507456 -21.006638548796015, -34.50961130445907 -21.33680626482883, -34.09980060722666 -21.622672466799 C-33.55486368232045 -21.953016433081974, -33.00992675741424 -22.283360399364952, -32.685513039518405 -22.480021901620027 C-32.29082569006962 -22.685930039018146, -31.896138340620837 -22.891838176416265, -31.219200710410576 -23.244996104497716 C-30.697567826229143 -23.475907508635107, -30.175934942047707 -23.706818912772498, -29.70688901178645 -23.91445163234599 C-29.31202738276705 -24.059764361886018, -28.917165753747643 -24.205077091426045, -28.15479235680553 -24.485637548803172 C-27.636613167696176 -24.63943041215276, -27.118433978586825 -24.79322327550235, -26.569288643546816 -24.956206728419538 C-26.023242893680706 -25.080838107544952, -25.477197143814596 -25.20546948667037, -24.956893046857545 -25.324225501499278 C-24.429580475108903 -25.409477308729528, -23.902267903360258 -25.49472911595978, -23.32423124610233 -25.588181599964017 C-22.83468844307143 -25.63540720541105, -22.345145640040528 -25.68263281085808, -21.678012198825286 -25.746990371586765 C-21.20920621753799 -25.76202406693116, -20.740400236250693 -25.77705776227556, -20.025000572204597 -25.799999237060547 C-20.025000572204597 -25.799999237060547, -20.025000572204593 -25.799999237060547, -20.02500057220459 -25.799999237060547" stroke="none" stroke-width="0" fill="#8e44ad" style="fill:#8e44ad !important"></path><path d="M-20.02500057220459 -25.799999237060547 C-7.1103091848899425 -25.799999237060547, 5.804382202424705 -25.799999237060547, 20.02500057220459 -25.799999237060547 M-20.02500057220459 -25.799999237060547 C-9.700556226980426 -25.799999237060547, 0.6238881182437375 -25.799999237060547, 20.02500057220459 -25.799999237060547 M20.02500057220459 -25.799999237060547 C20.02500057220459 -25.799999237060547, 20.02500057220459 -25.799999237060547, 20.02500057220459 -25.799999237060547 M20.02500057220459 -25.799999237060547 C20.02500057220459 -25.799999237060547, 20.02500057220459 -25.799999237060547, 20.02500057220459 -25.799999237060547 M20.02500057220459 -25.799999237060547 C20.56774965610895 -25.78259433033674, 21.110498740013316 -25.76518942361293, 21.678012198825282 -25.746990371586765 M20.02500057220459 -25.799999237060547 C20.498380051459797 -25.784818878538093, 20.971759530715 -25.769638520015636, 21.678012198825282 -25.746990371586765 M21.678012198825282 -25.746990371586765 C22.18069652652316 -25.698497019060106, 22.68338085422104 -25.650003666533447, 23.32423124610231 -25.58818159996402 M21.678012198825282 -25.746990371586765 C22.072529953747402 -25.708931718246447, 22.467047708669526 -25.67087306490613, 23.32423124610231 -25.58818159996402 M23.32423124610231 -25.58818159996402 C23.711398836446694 -25.525587346486645, 24.098566426791077 -25.462993093009274, 24.95689304685753 -25.32422550149928 M23.32423124610231 -25.58818159996402 C23.757839885070506 -25.51807911790086, 24.191448524038705 -25.447976635837698, 24.95689304685753 -25.32422550149928 M24.95689304685753 -25.32422550149928 C25.49510634524065 -25.201381828313334, 26.033319643623773 -25.078538155127386, 26.569288643546784 -24.956206728419545 M24.95689304685753 -25.32422550149928 C25.41694743840636 -25.219221088763728, 25.877001829955187 -25.114216676028178, 26.569288643546784 -24.956206728419545 M26.569288643546784 -24.956206728419545 C27.03105259531247 -24.819157611383936, 27.492816547078156 -24.682108494348324, 28.154792356805512 -24.48563754880318 M26.569288643546784 -24.956206728419545 C27.110683420001806 -24.79552360060687, 27.652078196456827 -24.634840472794192, 28.154792356805512 -24.48563754880318 M28.154792356805512 -24.48563754880318 C28.491495439865602 -24.361727701787885, 28.828198522925693 -24.23781785477259, 29.706889011786437 -23.914451632345997 M28.154792356805512 -24.48563754880318 C28.50508267252063 -24.356727474571834, 28.855372988235747 -24.227817400340488, 29.706889011786437 -23.914451632345997 M29.706889011786437 -23.914451632345997 C30.227974770553757 -23.683782424399535, 30.749060529321078 -23.453113216453072, 31.219200710410565 -23.24499610449772 M29.706889011786437 -23.914451632345997 C30.27263518146439 -23.664012585293417, 30.838381351142342 -23.413573538240836, 31.219200710410565 -23.24499610449772 M31.219200710410565 -23.24499610449772 C31.786723761136663 -22.948919692449778, 32.35424681186276 -22.652843280401836, 32.6855130395184 -22.480021901620034 M31.219200710410565 -23.24499610449772 C31.661505784114095 -23.01424583085651, 32.10381085781763 -22.783495557215296, 32.6855130395184 -22.480021901620034 M32.6855130395184 -22.480021901620034 C33.11165739629548 -22.221690688239555, 33.53780175307255 -21.96335947485908, 34.09980060722664 -21.62267246679901 M32.6855130395184 -22.480021901620034 C32.984541585255634 -22.298749039907328, 33.28357013099288 -22.11747617819462, 34.09980060722664 -21.62267246679901 M34.09980060722664 -21.62267246679901 C34.56408476167399 -21.298807939193658, 35.02836891612133 -20.974943411588303, 35.45625180255584 -20.67647083276321 M34.09980060722664 -21.62267246679901 C34.46331442464802 -21.369100964025392, 34.82682824206939 -21.11552946125177, 35.45625180255584 -20.67647083276321 M35.45625180255584 -20.67647083276321 C35.84484342364753 -20.366579355799914, 36.233435044739224 -20.056687878836616, 36.749292676586506 -19.64530514498651 M35.45625180255584 -20.67647083276321 C35.88390063170057 -20.335432271733573, 36.31154946084529 -19.994393710703935, 36.749292676586506 -19.64530514498651 M36.749292676586506 -19.64530514498651 C37.13994502966728 -19.29052501401341, 37.53059738274806 -18.935744883040314, 37.97360984701088 -18.533412684464313 M36.749292676586506 -19.64530514498651 C37.19359775538035 -19.241799028094132, 37.637902834174206 -18.83829291120175, 37.97360984701088 -18.533412684464313 M37.97360984701088 -18.533412684464313 C38.225656284959115 -18.27315404388536, 38.477702722907345 -18.012895403306405, 39.12417233196044 -17.345362455817106 M37.97360984701088 -18.533412684464313 C38.33243231840404 -18.162899022878097, 38.69125478979719 -17.79238536129188, 39.12417233196044 -17.345362455817106 M39.12417233196044 -17.345362455817106 C39.43709014460527 -16.97779138755654, 39.7500079572501 -16.610220319295973, 40.19625222338968 -16.086036412270357 M39.12417233196044 -17.345362455817106 C39.455802064649376 -16.955811301534315, 39.78743179733832 -16.566260147251523, 40.19625222338968 -16.086036412270357 M40.19625222338968 -16.086036412270357 C40.42540554609434 -15.778991836143277, 40.65455886879899 -15.471947260016197, 41.18544411506427 -14.76060939466161 M40.19625222338968 -16.086036412270357 C40.40939721134948 -15.800441546312088, 40.62254219930928 -15.514846680353818, 41.18544411506427 -14.76060939466161 M41.18544411506427 -14.76060939466161 C41.42652911132921 -14.390238100012665, 41.66761410759415 -14.01986680536372, 42.08768320532037 -13.374527866909407 M41.18544411506427 -14.76060939466161 C41.376244906109385 -14.467488142430044, 41.56704569715449 -14.174366890198476, 42.08768320532037 -13.374527866909407 M42.08768320532037 -13.374527866909407 C42.36161495681202 -12.888134303538266, 42.63554670830368 -12.401740740167126, 42.899262000206406 -11.93348753532484 M42.08768320532037 -13.374527866909407 C42.36001850695232 -12.890968961922242, 42.63235380858428 -12.407410056935078, 42.899262000206406 -11.93348753532484 M42.899262000206406 -11.93348753532484 C43.09677555736423 -11.523346407773492, 43.294289114522066 -11.113205280222143, 43.61684554837108 -10.443409943732584 M42.899262000206406 -11.93348753532484 C43.13520352243793 -11.44354991607122, 43.37114504466946 -10.9536122968176, 43.61684554837108 -10.443409943732584 M43.61684554837108 -10.443409943732584 C43.80318397398791 -9.983150429850639, 43.98952239960474 -9.522890915968693, 44.237485145093814 -8.910418140577123 M43.61684554837108 -10.443409943732584 C43.76328194331188 -10.081709217073714, 43.90971833825268 -9.720008490414841, 44.237485145093814 -8.910418140577123 M44.237485145093814 -8.910418140577123 C44.367280983423704 -8.519493755685907, 44.4970768217536 -8.128569370794692, 44.7586304491449 -7.340811518003323 M44.237485145093814 -8.910418140577123 C44.390433041553905 -8.449763445377272, 44.54338093801399 -7.989108750177421, 44.7586304491449 -7.340811518003323 M44.7586304491449 -7.340811518003323 C44.857525480631026 -6.963681901568968, 44.95642051211715 -6.586552285134613, 45.17813996268467 -5.741039926302914 M44.7586304491449 -7.340811518003323 C44.90729744904768 -6.77387981468869, 45.05596444895046 -6.206948111374056, 45.17813996268467 -5.741039926302914 M45.17813996268467 -5.741039926302914 C45.27720212291938 -5.232376670292661, 45.376264283154086 -4.723713414282408, 45.49428983113747 -4.117677170096137 M45.17813996268467 -5.741039926302914 C45.29026401695285 -5.165306605063071, 45.40238807122103 -4.589573283823228, 45.49428983113747 -4.117677170096137 M45.49428983113747 -4.117677170096137 C45.57349048449681 -3.503412542579136, 45.652691137856145 -2.889147915062135, 45.70578092687991 -2.4773939951584394 M45.49428983113747 -4.117677170096137 C45.57228164702732 -3.5127880472805475, 45.65027346291716 -2.9078989244649582, 45.70578092687991 -2.4773939951584394 M45.70578092687991 -2.4773939951584394 C45.7378153881144 -1.978431403679569, 45.76984984934889 -1.4794688122006987, 45.81174418763487 -0.8269306768952902 M45.70578092687991 -2.4773939951584394 C45.745546332780776 -1.858015700194503, 45.78531173868165 -1.2386374052305666, 45.81174418763487 -0.8269306768952902 M45.81174418763487 -0.8269306768952902 C45.81174418763487 -0.3130465994284707, 45.81174418763487 0.20083747803834884, 45.81174418763487 0.826930676895284 M45.81174418763487 -0.8269306768952902 C45.81174418763487 -0.27942264843973885, 45.81174418763487 0.2680853800158125, 45.81174418763487 0.826930676895284 M45.81174418763487 0.826930676895284 C45.77975470748161 1.3251926517259613, 45.74776522732835 1.823454626556639, 45.70578092687991 2.4773939951584216 M45.81174418763487 0.826930676895284 C45.770590896325224 1.4679264073819378, 45.72943760501557 2.108922137868592, 45.70578092687991 2.4773939951584216 M45.70578092687991 2.4773939951584216 C45.65540510102425 2.8680989526629146, 45.6050292751686 3.258803910167407, 45.49428983113748 4.117677170096119 M45.70578092687991 2.4773939951584216 C45.66075536570045 2.8266033563635737, 45.615729804520996 3.1758127175687263, 45.49428983113748 4.117677170096119 M45.49428983113748 4.117677170096119 C45.42793506703283 4.458394859689146, 45.361580302928175 4.799112549282172, 45.17813996268467 5.741039926302909 M45.49428983113748 4.117677170096119 C45.38203394656616 4.694087412080226, 45.26977806199484 5.270497654064333, 45.17813996268467 5.741039926302909 M45.17813996268467 5.741039926302909 C45.068200412762415 6.160287078258804, 44.95826086284016 6.5795342302147, 44.75863044914491 7.340811518003306 M45.17813996268467 5.741039926302909 C45.06078580936984 6.188562174504145, 44.943431656055004 6.63608442270538, 44.75863044914491 7.340811518003306 M44.75863044914491 7.340811518003306 C44.584491095921905 7.865291504572944, 44.41035174269891 8.389771491142582, 44.23748514509383 8.910418140577105 M44.75863044914491 7.340811518003306 C44.5604347626447 7.937745347547718, 44.362239076144476 8.53467917709213, 44.23748514509383 8.910418140577105 M44.23748514509383 8.910418140577105 C44.02422404016858 9.437177192865429, 43.81096293524334 9.963936245153752, 43.61684554837109 10.443409943732577 M44.23748514509383 8.910418140577105 C44.04669316732335 9.381678014382139, 43.85590118955287 9.852937888187173, 43.61684554837109 10.443409943732577 M43.61684554837109 10.443409943732577 C43.3606960860747 10.975309782911538, 43.1045466237783 11.507209622090498, 42.899262000206406 11.933487535324835 M43.61684554837109 10.443409943732577 C43.36652978110589 10.96319599035818, 43.1162140138407 11.482982036983783, 42.899262000206406 11.933487535324835 M42.899262000206406 11.933487535324835 C42.68123322368093 12.320619705853478, 42.463204447155455 12.707751876382119, 42.087683205320374 13.374527866909402 M42.899262000206406 11.933487535324835 C42.633463783840824 12.4054391834699, 42.367665567475235 12.877390831614967, 42.087683205320374 13.374527866909402 M42.087683205320374 13.374527866909402 C41.77144652846747 13.86035232399332, 41.45520985161456 14.346176781077238, 41.185444115064286 14.760609394661596 M42.087683205320374 13.374527866909402 C41.79647971089138 13.82189463343949, 41.50527621646239 14.26926139996958, 41.185444115064286 14.760609394661596 M41.185444115064286 14.760609394661596 C40.893610771588186 15.151639488355046, 40.60177742811208 15.542669582048497, 40.19625222338968 16.086036412270353 M41.185444115064286 14.760609394661596 C40.80094240154805 15.275806661946643, 40.41644068803181 15.791003929231689, 40.19625222338968 16.086036412270353 M40.19625222338968 16.086036412270353 C39.891525386737946 16.443985894049693, 39.586798550086215 16.80193537582903, 39.12417233196045 17.345362455817092 M40.19625222338968 16.086036412270353 C39.972992182608934 16.34829036002762, 39.7497321418282 16.610544307784885, 39.12417233196045 17.345362455817092 M39.12417233196045 17.345362455817092 C38.81690635137762 17.662639807775033, 38.50964037079478 17.979917159732974, 37.97360984701088 18.533412684464306 M39.12417233196045 17.345362455817092 C38.81160728450371 17.668111529383825, 38.49904223704696 17.990860602950562, 37.97360984701088 18.533412684464306 M37.97360984701088 18.533412684464306 C37.50037440914856 18.963192588007317, 37.02713897128625 19.392972491550324, 36.749292676586535 19.64530514498649 M37.97360984701088 18.533412684464306 C37.536342213960914 18.9305275793327, 37.09907458091095 19.3276424742011, 36.749292676586535 19.64530514498649 M36.749292676586535 19.64530514498649 C36.488292485891456 19.853445851559048, 36.22729229519638 20.061586558131605, 35.45625180255585 20.676470832763208 M36.749292676586535 19.64530514498649 C36.28333654085299 20.01689276362047, 35.81738040511945 20.388480382254443, 35.45625180255585 20.676470832763208 M35.45625180255585 20.676470832763208 C35.04907856670158 20.960497255849848, 34.64190533084732 21.244523678936485, 34.099800607226655 21.622672466799003 M35.45625180255585 20.676470832763208 C35.17052004608292 20.87578493695034, 34.88478828960999 21.07509904113747, 34.099800607226655 21.622672466799003 M34.099800607226655 21.622672466799003 C33.66526475198419 21.886090655863118, 33.23072889674172 22.149508844927237, 32.685513039518405 22.48002190162003 M34.099800607226655 21.622672466799003 C33.55172748982665 21.954917611402028, 33.00365437242666 22.287162756005053, 32.685513039518405 22.48002190162003 M32.685513039518405 22.48002190162003 C32.306581760281325 22.677710107280948, 31.927650481044246 22.87539831294186, 31.21920071041057 23.244996104497716 M32.685513039518405 22.48002190162003 C32.27615098213726 22.69358582474686, 31.86678892475611 22.907149747873696, 31.21920071041057 23.244996104497716 M31.21920071041057 23.244996104497716 C30.684596163151376 23.481649679088918, 30.149991615892183 23.718303253680123, 29.70688901178645 23.914451632345994 M31.21920071041057 23.244996104497716 C30.80679088166485 23.42755770198054, 30.394381052919133 23.610119299463364, 29.70688901178645 23.914451632345994 M29.70688901178645 23.914451632345994 C29.324046141487273 24.05534134757679, 28.941203271188094 24.196231062807588, 28.15479235680553 24.485637548803172 M29.70688901178645 23.914451632345994 C29.328427442097674 24.053728988451862, 28.949965872408896 24.193006344557734, 28.15479235680553 24.485637548803172 M28.15479235680553 24.485637548803172 C27.80549690766667 24.58930660461836, 27.456201458527808 24.692975660433547, 26.569288643546813 24.95620672841954 M28.15479235680553 24.485637548803172 C27.753127362327493 24.604849610781674, 27.351462367849457 24.724061672760175, 26.569288643546813 24.95620672841954 M26.569288643546813 24.95620672841954 C25.99339829371264 25.08764994273345, 25.417507943878473 25.21909315704736, 24.956893046857545 25.324225501499278 M26.569288643546813 24.95620672841954 C26.217201984394293 25.036568210790932, 25.865115325241774 25.116929693162323, 24.956893046857545 25.324225501499278 M24.956893046857545 25.324225501499278 C24.49672092111831 25.398622562100662, 24.036548795379076 25.47301962270205, 23.32423124610233 25.588181599964017 M24.956893046857545 25.324225501499278 C24.532702659662576 25.392805313655376, 24.108512272467603 25.461385125811475, 23.32423124610233 25.588181599964017 M23.32423124610233 25.588181599964017 C22.729177348368864 25.64558573382135, 22.134123450635396 25.70298986767868, 21.678012198825282 25.746990371586765 M23.32423124610233 25.588181599964017 C22.755899501888727 25.643007879809378, 22.187567757675122 25.69783415965474, 21.678012198825282 25.746990371586765 M21.678012198825282 25.746990371586765 C21.25981619324111 25.760401103516706, 20.841620187656936 25.773811835446644, 20.025000572204593 25.799999237060547 M21.678012198825282 25.746990371586765 C21.164932268653754 25.763443846297868, 20.651852338482225 25.779897321008967, 20.025000572204593 25.799999237060547 M20.025000572204593 25.799999237060547 C20.025000572204593 25.799999237060547, 20.02500057220459 25.799999237060547, 20.02500057220459 25.799999237060547 M20.025000572204593 25.799999237060547 C20.025000572204593 25.799999237060547, 20.02500057220459 25.799999237060547, 20.02500057220459 25.799999237060547 M20.02500057220459 25.799999237060547 C11.522254946395496 25.799999237060547, 3.019509320586401 25.799999237060547, -20.025000572204586 25.799999237060547 M20.02500057220459 25.799999237060547 C4.9049754281323565 25.799999237060547, -10.215049715939877 25.799999237060547, -20.025000572204586 25.799999237060547 M-20.025000572204586 25.799999237060547 C-20.442069876735843 25.786624636240383, -20.8591391812671 25.77325003542022, -21.67801219882527 25.746990371586765 M-20.025000572204586 25.799999237060547 C-20.542505902223898 25.783403848389845, -21.06001123224321 25.766808459719144, -21.67801219882527 25.746990371586765 M-21.67801219882527 25.746990371586765 C-22.03999302014943 25.712070517099253, -22.401973841473595 25.677150662611744, -23.32423124610232 25.588181599964017 M-21.67801219882527 25.746990371586765 C-22.046284358764648 25.711463599229486, -22.41455651870403 25.675936826872206, -23.32423124610232 25.588181599964017 M-23.32423124610232 25.588181599964017 C-23.826231266358143 25.507022129757356, -24.32823128661397 25.425862659550692, -24.956893046857534 25.324225501499278 M-23.32423124610232 25.588181599964017 C-23.731917387362568 25.522270066298304, -24.139603528622818 25.456358532632592, -24.956893046857534 25.324225501499278 M-24.956893046857534 25.324225501499278 C-25.520974427186175 25.195477607414276, -26.08505580751482 25.066729713329277, -26.569288643546784 24.956206728419545 M-24.956893046857534 25.324225501499278 C-25.57621531197843 25.182869235940906, -26.195537577099323 25.041512970382538, -26.569288643546784 24.956206728419545 M-26.569288643546784 24.956206728419545 C-27.007763481958488 24.826069697980348, -27.446238320370192 24.695932667541147, -28.154792356805498 24.485637548803183 M-26.569288643546784 24.956206728419545 C-27.096831317621913 24.799634831882052, -27.62437399169704 24.643062935344556, -28.154792356805498 24.485637548803183 M-28.154792356805498 24.485637548803183 C-28.507327135410154 24.3559014914809, -28.85986191401481 24.226165434158617, -29.70688901178644 23.914451632345997 M-28.154792356805498 24.485637548803183 C-28.72379171905169 24.276240523724137, -29.292791081297885 24.066843498645092, -29.70688901178644 23.914451632345997 M-29.70688901178644 23.914451632345997 C-30.235057974774932 23.68064690000661, -30.76322693776342 23.446842167667224, -31.21920071041056 23.244996104497723 M-29.70688901178644 23.914451632345997 C-30.137727489771013 23.72373221851159, -30.56856596775559 23.53301280467718, -31.21920071041056 23.244996104497723 M-31.21920071041056 23.244996104497723 C-31.770448552204947 22.957410458524688, -32.32169639399933 22.669824812551653, -32.6855130395184 22.480021901620038 M-31.21920071041056 23.244996104497723 C-31.702615505356654 22.9927989156163, -32.18603030030275 22.740601726734877, -32.6855130395184 22.480021901620038 M-32.6855130395184 22.480021901620038 C-33.23612645797302 22.146236811589233, -33.78673987642764 21.81245172155843, -34.099800607226626 21.622672466799017 M-32.6855130395184 22.480021901620038 C-33.15438918433949 22.195786427207413, -33.623265329160596 21.911550952794787, -34.099800607226626 21.622672466799017 M-34.099800607226626 21.622672466799017 C-34.558226641328105 21.302894310353, -35.01665267542958 20.98311615390698, -35.45625180255584 20.67647083276321 M-34.099800607226626 21.622672466799017 C-34.40402180378997 21.410460929599772, -34.70824300035332 21.198249392400527, -35.45625180255584 20.67647083276321 M-35.45625180255584 20.67647083276321 C-35.76199681348293 20.4326473227653, -36.06774182441002 20.18882381276738, -36.749292676586506 19.645305144986512 M-35.45625180255584 20.67647083276321 C-35.738734491653815 20.451198405387633, -36.0212171807518 20.225925978012057, -36.749292676586506 19.645305144986512 M-36.749292676586506 19.645305144986512 C-37.03974079565465 19.381527848084936, -37.3301889147228 19.117750551183363, -37.97360984701086 18.533412684464324 M-36.749292676586506 19.645305144986512 C-37.00398456368904 19.414000711898055, -37.25867645079157 19.182696278809594, -37.97360984701086 18.533412684464324 M-37.97360984701086 18.533412684464324 C-38.381141242034545 18.112603060152587, -38.788672637058234 17.691793435840847, -39.12417233196044 17.3453624558171 M-37.97360984701086 18.533412684464324 C-38.41164269714638 18.081107803533584, -38.84967554728189 17.628802922602844, -39.12417233196044 17.3453624558171 M-39.12417233196044 17.3453624558171 C-39.43636941599586 16.97863799639176, -39.74856650003129 16.61191353696642, -40.19625222338967 16.08603641227036 M-39.12417233196044 17.3453624558171 C-39.38675591894275 17.036916833118312, -39.64933950592505 16.728471210419524, -40.19625222338967 16.08603641227036 M-40.19625222338967 16.08603641227036 C-40.490055005461365 15.692367450278363, -40.783857787533066 15.298698488286364, -41.18544411506427 14.760609394661614 M-40.19625222338967 16.08603641227036 C-40.547726519703 15.615092875177611, -40.899200816016325 15.144149338084862, -41.18544411506427 14.760609394661614 M-41.18544411506427 14.760609394661614 C-41.41664763474757 14.405418701590055, -41.64785115443087 14.050228008518497, -42.08768320532036 13.374527866909418 M-41.18544411506427 14.760609394661614 C-41.4965893251136 14.282606797838259, -41.80773453516293 13.804604201014905, -42.08768320532036 13.374527866909418 M-42.08768320532036 13.374527866909418 C-42.304317209684726 12.989872255588825, -42.52095121404909 12.60521664426823, -42.8992620002064 11.933487535324842 M-42.08768320532036 13.374527866909418 C-42.391288828987214 12.835445338685819, -42.69489445265407 12.29636281046222, -42.8992620002064 11.933487535324842 M-42.8992620002064 11.933487535324842 C-43.107537060503034 11.50099991624649, -43.31581212079966 11.06851229716814, -43.61684554837108 10.443409943732586 M-42.8992620002064 11.933487535324842 C-43.081797871695215 11.55444789253634, -43.26433374318403 11.175408249747838, -43.61684554837108 10.443409943732586 M-43.61684554837108 10.443409943732586 C-43.74314837900017 10.131439510179629, -43.869451209629254 9.819469076626673, -44.237485145093814 8.910418140577127 M-43.61684554837108 10.443409943732586 C-43.85424754730815 9.857022416502623, -44.091649546245215 9.27063488927266, -44.237485145093814 8.910418140577127 M-44.237485145093814 8.910418140577127 C-44.3679021626881 8.517622862713031, -44.49831918028239 8.124827584848934, -44.7586304491449 7.340811518003316 M-44.237485145093814 8.910418140577127 C-44.39738256119406 8.428832599476706, -44.55727997729431 7.947247058376285, -44.7586304491449 7.340811518003316 M-44.7586304491449 7.340811518003316 C-44.882426960696584 6.868721765709258, -45.006223472248266 6.396632013415199, -45.17813996268467 5.741039926302918 M-44.7586304491449 7.340811518003316 C-44.889067612877426 6.843398080866836, -45.019504776609956 6.345984643730356, -45.17813996268467 5.741039926302918 M-45.17813996268467 5.741039926302918 C-45.27817880374897 5.227361620654273, -45.378217644813276 4.713683315005628, -45.49428983113747 4.117677170096139 M-45.17813996268467 5.741039926302918 C-45.26009140288215 5.320236601331833, -45.342042843079646 4.899433276360749, -45.49428983113747 4.117677170096139 M-45.49428983113747 4.117677170096139 C-45.572026380419764 3.5147678446806494, -45.64976292970206 2.9118585192651594, -45.70578092687991 2.477393995158454 M-45.49428983113747 4.117677170096139 C-45.540776828117075 3.7571332014182124, -45.58726382509668 3.3965892327402853, -45.70578092687991 2.477393995158454 M-45.70578092687991 2.477393995158454 C-45.74061826079376 1.9347743992604836, -45.7754555947076 1.392154803362513, -45.81174418763487 0.8269306768952934 M-45.70578092687991 2.477393995158454 C-45.73848514935497 1.9679993317360749, -45.77118937183004 1.4586046683136955, -45.81174418763487 0.8269306768952934 M-45.81174418763487 0.8269306768952934 C-45.81174418763487 0.4945444982727159, -45.81174418763487 0.16215831965013838, -45.81174418763487 -0.8269306768952809 M-45.81174418763487 0.8269306768952934 C-45.81174418763487 0.43879259366881695, -45.81174418763487 0.050654510442340484, -45.81174418763487 -0.8269306768952809 M-45.81174418763487 -0.8269306768952809 C-45.77038982172077 -1.4710583066507674, -45.72903545580667 -2.115185936406254, -45.70578092687991 -2.4773939951584185 M-45.81174418763487 -0.8269306768952809 C-45.778723729343554 -1.3412509684167913, -45.74570327105223 -1.8555712599383019, -45.70578092687991 -2.4773939951584185 M-45.70578092687991 -2.4773939951584185 C-45.65314514756823 -2.885626705389525, -45.60050936825655 -3.2938594156206316, -45.49428983113748 -4.117677170096128 M-45.70578092687991 -2.4773939951584185 C-45.63773346015809 -3.005156709560689, -45.569685993436266 -3.532919423962959, -45.49428983113748 -4.117677170096128 M-45.49428983113748 -4.117677170096128 C-45.36815361238068 -4.765359994512975, -45.24201739362389 -5.413042818929823, -45.17813996268467 -5.741039926302906 M-45.49428983113748 -4.117677170096128 C-45.40606214306882 -4.570707701400203, -45.31783445500016 -5.023738232704279, -45.17813996268467 -5.741039926302906 M-45.17813996268467 -5.741039926302906 C-45.05909260168561 -6.195019109244944, -44.94004524068656 -6.648998292186983, -44.75863044914491 -7.340811518003303 M-45.17813996268467 -5.741039926302906 C-45.06857202451566 -6.158869961586116, -44.95900408634666 -6.5766999968693245, -44.75863044914491 -7.340811518003303 M-44.75863044914491 -7.340811518003303 C-44.615792399889614 -7.771016964207726, -44.47295435063432 -8.201222410412148, -44.23748514509383 -8.910418140577093 M-44.75863044914491 -7.340811518003303 C-44.641495741568974 -7.69360259434084, -44.52436103399304 -8.046393670678377, -44.23748514509383 -8.910418140577093 M-44.23748514509383 -8.910418140577093 C-44.04011807459664 -9.397918620537865, -43.842751004099455 -9.885419100498638, -43.61684554837109 -10.443409943732574 M-44.23748514509383 -8.910418140577093 C-44.01231518020425 -9.466592307219475, -43.787145215314666 -10.022766473861857, -43.61684554837109 -10.443409943732574 M-43.61684554837109 -10.443409943732574 C-43.42978600040843 -10.831843097510195, -43.24272645244576 -11.220276251287817, -42.899262000206406 -11.933487535324831 M-43.61684554837109 -10.443409943732574 C-43.43723270029474 -10.816379865862405, -43.25761985221839 -11.189349787992239, -42.899262000206406 -11.933487535324831 M-42.899262000206406 -11.933487535324831 C-42.60721692042837 -12.45204314724182, -42.315171840650336 -12.970598759158808, -42.08768320532037 -13.374527866909409 M-42.899262000206406 -11.933487535324831 C-42.667421566064796 -12.345143702532905, -42.43558113192319 -12.75679986974098, -42.08768320532037 -13.374527866909409 M-42.08768320532037 -13.374527866909409 C-41.786802134879096 -13.836761988987384, -41.485921064437825 -14.29899611106536, -41.18544411506428 -14.760609394661605 M-42.08768320532037 -13.374527866909409 C-41.766229347007894 -13.868367315724607, -41.44477548869542 -14.362206764539804, -41.18544411506428 -14.760609394661605 M-41.18544411506428 -14.760609394661605 C-40.80434127603573 -15.271252479776983, -40.423238437007186 -15.78189556489236, -40.19625222338968 -16.086036412270353 M-41.18544411506428 -14.760609394661605 C-40.96790279664414 -15.052094942922784, -40.750361478223994 -15.343580491183962, -40.19625222338968 -16.086036412270353 M-40.19625222338968 -16.086036412270353 C-39.7692491063062 -16.587618570762285, -39.34224598922272 -17.089200729254216, -39.12417233196045 -17.345362455817092 M-40.19625222338968 -16.086036412270353 C-39.80886998135287 -16.541077636440804, -39.42148773931606 -16.996118860611254, -39.12417233196045 -17.345362455817092 M-39.12417233196045 -17.345362455817092 C-38.88248242453681 -17.594927128342434, -38.64079251711317 -17.84449180086777, -37.97360984701089 -18.5334126844643 M-39.12417233196045 -17.345362455817092 C-38.66908688489668 -17.815275543120503, -38.214001437832906 -18.285188630423914, -37.97360984701089 -18.5334126844643 M-37.97360984701089 -18.5334126844643 C-37.655890449592306 -18.821957034805255, -37.33817105217373 -19.110501385146215, -36.749292676586535 -19.645305144986487 M-37.97360984701089 -18.5334126844643 C-37.48573794218318 -18.97648504004558, -36.99786603735547 -19.419557395626864, -36.749292676586535 -19.645305144986487 M-36.749292676586535 -19.645305144986487 C-36.35599517938939 -19.95894943291526, -35.96269768219225 -20.272593720844036, -35.45625180255585 -20.676470832763204 M-36.749292676586535 -19.645305144986487 C-36.34398691996222 -19.968525700255228, -35.938681163337904 -20.291746255523968, -35.45625180255585 -20.676470832763204 M-35.45625180255585 -20.676470832763204 C-35.038948374807504 -20.967563639186217, -34.62164494705916 -21.258656445609226, -34.09980060722666 -21.622672466799 M-35.45625180255585 -20.676470832763204 C-35.132263741773635 -20.902470878747774, -34.808275680991414 -21.128470924732344, -34.09980060722666 -21.622672466799 M-34.09980060722666 -21.622672466799 C-33.59479264777042 -21.928811259577557, -33.08978468831418 -22.234950052356115, -32.685513039518405 -22.480021901620027 M-34.09980060722666 -21.622672466799 C-33.66810748349028 -21.88436737531838, -33.2364143597539 -22.146062283837757, -32.685513039518405 -22.480021901620027 M-32.685513039518405 -22.480021901620027 C-32.38331424585141 -22.637678818708537, -32.08111545218441 -22.795335735797043, -31.219200710410576 -23.244996104497716 M-32.685513039518405 -22.480021901620027 C-32.10163349444502 -22.784631486292117, -31.517753949371635 -23.089241070964206, -31.219200710410576 -23.244996104497716 M-31.219200710410576 -23.244996104497716 C-30.767404001525534 -23.44499310544793, -30.315607292640493 -23.644990106398144, -29.70688901178645 -23.91445163234599 M-31.219200710410576 -23.244996104497716 C-30.881959803418155 -23.39428265012719, -30.544718896425735 -23.543569195756668, -29.70688901178645 -23.91445163234599 M-29.70688901178645 -23.91445163234599 C-29.223218611622265 -24.092446810606578, -28.73954821145808 -24.270441988867166, -28.15479235680553 -24.485637548803172 M-29.70688901178645 -23.91445163234599 C-29.213610349123158 -24.095982740024056, -28.720331686459865 -24.27751384770212, -28.15479235680553 -24.485637548803172 M-28.15479235680553 -24.485637548803172 C-27.751720232564402 -24.605267239509185, -27.348648108323275 -24.724896930215195, -26.569288643546816 -24.956206728419538 M-28.15479235680553 -24.485637548803172 C-27.752972174310333 -24.604895669770567, -27.351151991815133 -24.724153790737965, -26.569288643546816 -24.956206728419538 M-26.569288643546816 -24.956206728419538 C-25.97849288503613 -25.091052004996982, -25.387697126525445 -25.225897281574426, -24.956893046857545 -25.324225501499278 M-26.569288643546816 -24.956206728419538 C-26.052257077118025 -25.074215809510626, -25.535225510689234 -25.192224890601718, -24.956893046857545 -25.324225501499278 M-24.956893046857545 -25.324225501499278 C-24.400337437324048 -25.41420509629544, -23.84378182779055 -25.504184691091602, -23.32423124610233 -25.588181599964017 M-24.956893046857545 -25.324225501499278 C-24.525217527709497 -25.394015451741485, -24.093542008561446 -25.46380540198369, -23.32423124610233 -25.588181599964017 M-23.32423124610233 -25.588181599964017 C-22.820676016615586 -25.636758967338835, -22.317120787128843 -25.685336334713654, -21.678012198825286 -25.746990371586765 M-23.32423124610233 -25.588181599964017 C-22.933889211032817 -25.62583742663219, -22.5435471759633 -25.663493253300366, -21.678012198825286 -25.746990371586765 M-21.678012198825286 -25.746990371586765 C-21.274828657932616 -25.75991968299404, -20.871645117039947 -25.77284899440131, -20.025000572204597 -25.799999237060547 M-21.678012198825286 -25.746990371586765 C-21.24701935028959 -25.760811473362615, -20.816026501753896 -25.77463257513847, -20.025000572204597 -25.799999237060547 M-20.025000572204597 -25.799999237060547 C-20.025000572204593 -25.799999237060547, -20.025000572204593 -25.799999237060547, -20.02500057220459 -25.799999237060547 M-20.025000572204597 -25.799999237060547 C-20.025000572204593 -25.799999237060547, -20.025000572204593 -25.799999237060547, -20.02500057220459 -25.799999237060547" stroke="#9370DB" stroke-width="1.3" fill="none" stroke-dasharray="0 0" style="fill:#8e44ad !important"></path></g><g class="label" style="color:white !important" transform="translate(0, -18.299999237060547)"><rect></rect><g><rect class="background" style="stroke: none"></rect><text y="-10.1" style="fill:white !important"><tspan class="text-outer-tspan" x="0" y="-0.1em" dy="1.1em"><tspan font-style="normal" class="text-inner-tspan" font-weight="normal">Guice</tspan></tspan><tspan class="text-outer-tspan" x="0" y="1em" dy="1.1em"><tspan font-style="normal" class="text-inner-tspan" font-weight="normal">injection</tspan></tspan></text></g></g></g></g></g></g></svg>